<?xml version="1.0" encoding="utf-8"?>
<!-- Svg Vector Icons : http://www.onlinewebfonts.com/icon -->
<!DOCTYPE svg PUBLIC "-//W3C//DTD SVG 1.1//EN" "http://www.w3.org/Graphics/SVG/1.1/DTD/svg11.dtd">
<svg version="1.1" xmlns="http://www.w3.org/2000/svg" xmlns:xlink="http://www.w3.org/1999/xlink" x="0px" y="0px"
   viewBox="0 0 1000 1000" enable-background="new 0 0 1000 1000" xml:space="preserve">
   <metadata> Svg Vector Icons : http://www.onlinewebfonts.com/icon </metadata>
   <g>
      <path d="M499.8,11.6" />
      <path fill="#212529"
         d="M817.2,500.6c4-48.4,3.7-79.8,3.7-79.8H592.1c69.2-139.8-1.9-182.2-41.5-216.2C405.2,107,496.5,15.4,496.5,15.4c-162.6,26.4-154,190-81.1,243.3C547,338.5,523.6,420.8,523.6,420.8H388.7c0-38.8-27.8-56.1-45.6-71c-94-61-62.2-118.3-62.2-118.3c-105.1,16.5-82.1,128.5-25.1,152c19.1,7.5,33.3,21.7,43.7,37.2H10c0,0-5.2,451.8,243.3,567.6h324.3c39.8-18.6,73.2-45.8,101-78.4C955.3,942.7,982,750.4,983,745.1C1027.3,527.8,847.4,503.2,817.2,500.6z M902,704.6c-8.2,61.9-42.6,121.7-135.1,121.6c-10.7,0-21.2-1.1-31.2-3.3c42.8-84.7,64.2-182.4,74.8-260.3C866.9,580.4,911.5,632.1,902,704.6z" />
   </g>
</svg>